{
  "accessors": [
    {
      "bufferView": 2,
      "componentType": 5126,
      "count": 24,
      "max": [
        0.04994000121951103,
        2.5500900745391846,
        0.5499799847602844
      ],
      "min": [
        -0.04994000121951103,
        2.449970006942749,
        0.4500100016593933
      ],
      "type": "VEC3"
    },
    {
      "bufferView": 2,
      "byteOffset": 288,
      "componentType": 5126,
      "count": 24,
      "max": [
        1.0,
        1.0,
        1.0
      ],
      "min": [
        -1.0,
        -1.0,
        -1.0
      ],
      "type": "VEC3"
    },
    {
      "bufferView": 1,
      "componentType": 5126,
      "count": 24,
      "max": [
        1.0002000331878662,
        0.010999999940395355
      ],
      "min": [
        -1.2548999786376953,
        -1.0002000331878662
      ],
      "type": "VEC2"
    },
    {
      "bufferView": 0,
      "componentType": 5125,
      "count": 36,
      "type": "SCALAR"
    },
    {
      "bufferView": 2,
      "byteOffset": 576,
      "componentType": 5126,
      "count": 156,
      "max": [
        -3.769059896469116,
        2.374959945678711,
        -0.5449100136756897
      ],
      "min": [
        -3.8867599964141846,
        2.136460065841675,
        -0.6191999912261963
      ],
      "type": "VEC3"
    },
    {
      "bufferView": 2,
      "byteOffset": 2448,
      "componentType": 5126,
      "count": 156,
      "max": [
        1.0,
        0.9945522546768188,
        0.9958957433700562
      ],
      "min": [
        -0.9994438886642456,
        -0.995617151260376,
        -0.9995257258415222
      ],
      "type": "VEC3"
    },
    {
      "bufferView": 1,
      "byteOffset": 192,
      "componentType": 5126,
      "count": 156,
      "max": [
        0.9625999927520752,
        -0.28130000829696655
      ],
      "min": [
        0.26030001044273376,
        -0.8137000203132629
      ],
      "type": "VEC2"
    },
    {
      "bufferView": 0,
      "byteOffset": 144,
      "componentType": 5125,
      "count": 513,
      "type": "SCALAR"
    },
    {
      "bufferView": 2,
      "byteOffset": 4320,
      "componentType": 5126,
      "count": 7347,
      "max": [
        0.33529001474380493,
        4.792490005493164,
        -0.1567399948835373
      ],
      "min": [
        -0.33529001474380493,
        -10.336779594421387,
        -1.0513499975204468
      ],
      "type": "VEC3"
    },
    {
      "bufferView": 2,
      "byteOffset": 92484,
      "componentType": 5126,
      "count": 7347,
      "max": [
        1.0,
        1.0,
        1.0
      ],
      "min": [
        -1.0,
        -1.0,
        -1.0
      ],
      "type": "VEC3"
    },
    {
      "bufferView": 3,
      "componentType": 5126,
      "count": 7347,
      "max": [
        1.0,
        1.0,
        1.0,
        1.0
      ],
      "min": [
        -1.0,
        -1.0,
        -1.0,
        -1.0
      ],
      "type": "VEC4"
    },
    {
      "bufferView": 1,
      "byteOffset": 1440,
      "componentType": 5126,
      "count": 7347,
      "max": [
        0.9916999936103821,
        -0.00930000003427267
      ],
      "min": [
        0.005100000184029341,
        -0.9872999787330627
      ],
      "type": "VEC2"
    },
    {
      "bufferView": 0,
      "byteOffset": 2196,
      "componentType": 5125,
      "count": 27363,
      "type": "SCALAR"
    },
    {
      "bufferView": 2,
      "byteOffset": 180648,
      "componentType": 5126,
      "count": 3778,
      "max": [
        2.4439399242401123,
        1.3812810182571411,
        -0.5665019750595093
      ],
      "min": [
        -2.4439399242401123,
        -0.8079389929771423,
        -0.8449919819831848
      ],
      "type": "VEC3"
    },
    {
      "bufferView": 2,
      "byteOffset": 225984,
      "componentType": 5126,
      "count": 3778,
      "max": [
        1.0,
        1.0,
        1.0
      ],
      "min": [
        -1.0,
        -1.0,
        -1.0
      ],
      "type": "VEC3"
    },
    {
      "bufferView": 3,
      "byteOffset": 117552,
      "componentType": 5126,
      "count": 3778,
      "max": [
        1.0,
        1.0,
        1.0,
        1.0
      ],
      "min": [
        -1.0,
        -1.0,
        -1.0,
        1.0
      ],
      "type": "VEC4"
    },
    {
      "bufferView": 1,
      "byteOffset": 60216,
      "componentType": 5126,
      "count": 3778,
      "max": [
        0.9901999831199646,
        -0.12309999763965607
      ],
      "min": [
        0.009999999776482582,
        -0.8772000074386597
      ],
      "type": "VEC2"
    },
    {
      "bufferView": 0,
      "byteOffset": 111648,
      "componentType": 5125,
      "count": 10740,
      "type": "SCALAR"
    },
    {
      "bufferView": 2,
      "byteOffset": 271320,
      "componentType": 5126,
      "count": 3974,
      "max": [
        0.3962799906730652,
        -4.310253143310547,
        0.6227260231971741
      ],
      "min": [
        -0.3962799906730652,
        -5.715912818908691,
        0.034676000475883484
      ],
      "type": "VEC3"
    },
    {
      "bufferView": 2,
      "byteOffset": 319008,
      "componentType": 5126,
      "count": 3974,
      "max": [
        1.0,
        1.0,
        1.0
      ],
      "min": [
        -1.0,
        -0.999961793422699,
        -0.9999988079071045
      ],
      "type": "VEC3"
    },
    {
      "bufferView": 3,
      "byteOffset": 178000,
      "componentType": 5126,
      "count": 3974,
      "max": [
        1.0,
        1.0,
        0.9996786713600159,
        1.0
      ],
      "min": [
        -1.0,
        -1.0,
        -1.0,
        -1.0
      ],
      "type": "VEC4"
    },
    {
      "bufferView": 1,
      "byteOffset": 90440,
      "componentType": 5126,
      "count": 3974,
      "max": [
        0.9973000288009644,
        -0.0027000000700354576
      ],
      "min": [
        0.008799999952316284,
        -0.9983000159263611
      ],
      "type": "VEC2"
    },
    {
      "bufferView": 0,
      "byteOffset": 154608,
      "componentType": 5125,
      "count": 10218,
      "type": "SCALAR"
    },
    {
      "bufferView": 2,
      "byteOffset": 366696,
      "componentType": 5126,
      "count": 13004,
      "max": [
        0.43316999077796936,
        -4.310460090637207,
        0.6226900219917297
      ],
      "min": [
        -0.43255001306533813,
        -6.6544599533081055,
        -0.6143400073051453
      ],
      "type": "VEC3"
    },
    {
      "bufferView": 2,
      "byteOffset": 522744,
      "componentType": 5126,
      "count": 13004,
      "max": [
        1.0,
        1.0,
        1.0
      ],
      "min": [
        -1.0,
        -1.0,
        -1.0
      ],
      "type": "VEC3"
    },
    {
      "bufferView": 3,
      "byteOffset": 241584,
      "componentType": 5126,
      "count": 13004,
      "max": [
        1.0,
        1.0,
        1.0,
        1.0
      ],
      "min": [
        -1.0,
        -1.0,
        -1.0,
        -1.0
      ],
      "type": "VEC4"
    },
    {
      "bufferView": 1,
      "byteOffset": 122232,
      "componentType": 5126,
      "count": 13004,
      "max": [
        0.9977999925613403,
        -0.0027000000700354576
      ],
      "min": [
        0.0020000000949949026,
        -0.9983000159263611
      ],
      "type": "VEC2"
    },
    {
      "bufferView": 0,
      "byteOffset": 195480,
      "componentType": 5125,
      "count": 33078,
      "type": "SCALAR"
    },
    {
      "bufferView": 2,
      "byteOffset": 678792,
      "componentType": 5126,
      "count": 11803,
      "max": [
        -2.126159906387329,
        1.105679988861084,
        -0.7884200215339661
      ],
      "min": [
        -2.4038400650024414,
        -1.1673599481582642,
        -1.0916600227355957
      ],
      "type": "VEC3"
    },
    {
      "bufferView": 2,
      "byteOffset": 820428,
      "componentType": 5126,
      "count": 11803,
      "max": [
        1.0,
        1.0,
        1.0
      ],
      "min": [
        -1.0,
        -1.0,
        -1.0
      ],
      "type": "VEC3"
    },
    {
      "bufferView": 3,
      "byteOffset": 449648,
      "componentType": 5126,
      "count": 11803,
      "max": [
        1.0,
        1.0,
        1.0,
        1.0
      ],
      "min": [
        -1.0,
        -1.0,
        -1.0,
        -1.0
      ],
      "type": "VEC4"
    },
    {
      "bufferView": 1,
      "byteOffset": 226264,
      "componentType": 5126,
      "count": 11803,
      "max": [
        0.9965999722480774,
        -0.006099999882280827
      ],
      "min": [
        -0.0005000000237487257,
        -1.0002000331878662
      ],
      "type": "VEC2"
    },
    {
      "bufferView": 0,
      "byteOffset": 327792,
      "componentType": 5125,
      "count": 42570,
      "type": "SCALAR"
    },
    {
      "bufferView": 2,
      "byteOffset": 962064,
      "componentType": 5126,
      "count": 11803,
      "max": [
        -2.126159906387329,
        1.105679988861084,
        -0.7884200215339661
      ],
      "min": [
        -2.4038400650024414,
        -1.1673599481582642,
        -1.0916600227355957
      ],
      "type": "VEC3"
    },
    {
      "bufferView": 2,
      "byteOffset": 1103700,
      "componentType": 5126,
      "count": 11803,
      "max": [
        1.0,
        1.0,
        1.0
      ],
      "min": [
        -1.0,
        -1.0,
        -1.0
      ],
      "type": "VEC3"
    },
    {
      "bufferView": 3,
      "byteOffset": 638496,
      "componentType": 5126,
      "count": 11803,
      "max": [
        1.0,
        1.0,
        1.0,
        1.0
      ],
      "min": [
        -1.0,
        -1.0,
        -1.0,
        -1.0
      ],
      "type": "VEC4"
    },
    {
      "bufferView": 1,
      "byteOffset": 320688,
      "componentType": 5126,
      "count": 11803,
      "max": [
        0.9965999722480774,
        -0.006099999882280827
      ],
      "min": [
        -0.0005000000237487257,
        -1.0002000331878662
      ],
      "type": "VEC2"
    },
    {
      "bufferView": 0,
      "byteOffset": 498072,
      "componentType": 5125,
      "count": 42570,
      "type": "SCALAR"
    },
    {
      "bufferView": 2,
      "byteOffset": 1245336,
      "componentType": 5126,
      "count": 11803,
      "max": [
        -2.126159906387329,
        1.105679988861084,
        -0.7884200215339661
      ],
      "min": [
        -2.4038400650024414,
        -1.1673599481582642,
        -1.0916600227355957
      ],
      "type": "VEC3"
    },
    {
      "bufferView": 2,
      "byteOffset": 1386972,
      "componentType": 5126,
      "count": 11803,
      "max": [
        1.0,
        1.0,
        1.0
      ],
      "min": [
        -1.0,
        -1.0,
        -1.0
      ],
      "type": "VEC3"
    },
    {
      "bufferView": 3,
      "byteOffset": 827344,
      "componentType": 5126,
      "count": 11803,
      "max": [
        1.0,
        1.0,
        1.0,
        1.0
      ],
      "min": [
        -1.0,
        -1.0,
        -1.0,
        -1.0
      ],
      "type": "VEC4"
    },
    {
      "bufferView": 1,
      "byteOffset": 415112,
      "componentType": 5126,
      "count": 11803,
      "max": [
        0.9965999722480774,
        -0.006099999882280827
      ],
      "min": [
        -0.0005000000237487257,
        -1.0002000331878662
      ],
      "type": "VEC2"
    },
    {
      "bufferView": 0,
      "byteOffset": 668352,
      "componentType": 5125,
      "count": 42570,
      "type": "SCALAR"
    },
    {
      "bufferView": 2,
      "byteOffset": 1528608,
      "componentType": 5126,
      "count": 11803,
      "max": [
        2.4038400650024414,
        1.105679988861084,
        -0.7884200215339661
      ],
      "min": [
        2.126159906387329,
        -1.1673599481582642,
        -1.0916600227355957
      ],
      "type": "VEC3"
    },
    {
      "bufferView": 2,
      "byteOffset": 1670244,
      "componentType": 5126,
      "count": 11803,
      "max": [
        1.0,
        1.0,
        1.0
      ],
      "min": [
        -1.0,
        -1.0,
        -1.0
      ],
      "type": "VEC3"
    },
    {
      "bufferView": 3,
      "byteOffset": 1016192,
      "componentType": 5126,
      "count": 11803,
      "max": [
        1.0,
        1.0,
        1.0,
        1.0
      ],
      "min": [
        -1.0,
        -1.0,
        -1.0,
        -1.0
      ],
      "type": "VEC4"
    },
    {
      "bufferView": 1,
      "byteOffset": 509536,
      "componentType": 5126,
      "count": 11803,
      "max": [
        0.9965999722480774,
        -0.006099999882280827
      ],
      "min": [
        -0.0005000000237487257,
        -1.0002000331878662
      ],
      "type": "VEC2"
    },
    {
      "bufferView": 0,
      "byteOffset": 838632,
      "componentType": 5125,
      "count": 42570,
      "type": "SCALAR"
    },
    {
      "bufferView": 2,
      "byteOffset": 1811880,
      "componentType": 5126,
      "count": 11803,
      "max": [
        2.4038400650024414,
        1.105679988861084,
        -0.7884200215339661
      ],
      "min": [
        2.126159906387329,
        -1.1673599481582642,
        -1.0916600227355957
      ],
      "type": "VEC3"
    },
    {
      "bufferView": 2,
      "byteOffset": 1953516,
      "componentType": 5126,
      "count": 11803,
      "max": [
        1.0,
        1.0,
        1.0
      ],
      "min": [
        -1.0,
        -1.0,
        -1.0
      ],
      "type": "VEC3"
    },
    {
      "bufferView": 3,
      "byteOffset": 1205040,
      "componentType": 5126,
      "count": 11803,
      "max": [
        1.0,
        1.0,
        1.0,
        1.0
      ],
      "min": [
        -1.0,
        -1.0,
        -1.0,
        -1.0
      ],
      "type": "VEC4"
    },
    {
      "bufferView": 1,
      "byteOffset": 603960,
      "componentType": 5126,
      "count": 11803,
      "max": [
        0.9965999722480774,
        -0.006099999882280827
      ],
      "min": [
        -0.0005000000237487257,
        -1.0002000331878662
      ],
      "type": "VEC2"
    },
    {
      "bufferView": 0,
      "byteOffset": 1008912,
      "componentType": 5125,
      "count": 42570,
      "type": "SCALAR"
    },
    {
      "bufferView": 2,
      "byteOffset": 2095152,
      "componentType": 5126,
      "count": 11803,
      "max": [
        2.4038400650024414,
        1.105679988861084,
        -0.7884200215339661
      ],
      "min": [
        2.126159906387329,
        -1.1673599481582642,
        -1.0916600227355957
      ],
      "type": "VEC3"
    },
    {
      "bufferView": 2,
      "byteOffset": 2236788,
      "componentType": 5126,
      "count": 11803,
      "max": [
        1.0,
        1.0,
        1.0
      ],
      "min": [
        -1.0,
        -1.0,
        -1.0
      ],
      "type": "VEC3"
    },
    {
      "bufferView": 3,
      "byteOffset": 1393888,
      "componentType": 5126,
      "count": 11803,
      "max": [
        1.0,
        1.0,
        1.0,
        1.0
      ],
      "min": [
        -1.0,
        -1.0,
        -1.0,
        -1.0
      ],
      "type": "VEC4"
    },
    {
      "bufferView": 1,
      "byteOffset": 698384,
      "componentType": 5126,
      "count": 11803,
      "max": [
        0.9965999722480774,
        -0.006099999882280827
      ],
      "min": [
        -0.0005000000237487257,
        -1.0002000331878662
      ],
      "type": "VEC2"
    },
    {
      "bufferView": 0,
      "byteOffset": 1179192,
      "componentType": 5125,
      "count": 42570,
      "type": "SCALAR"
    },
    {
      "bufferView": 2,
      "byteOffset": 2378424,
      "componentType": 5126,
      "count": 11803,
      "max": [
        1.168511986732483,
        -1.0043790340423584,
        -0.9051079750061035
      ],
      "min": [
        0.8167889714241028,
        -3.277419090270996,
        -1.2568310499191284
      ],
      "type": "VEC3"
    },
    {
      "bufferView": 2,
      "byteOffset": 2520060,
      "componentType": 5126,
      "count": 11803,
      "max": [
        0.9999969601631165,
        1.0,
        0.9999945163726807
      ],
      "min": [
        -0.9999952912330627,
        -1.0,
        -0.9999939203262329
      ],
      "type": "VEC3"
    },
    {
      "bufferView": 3,
      "byteOffset": 1582736,
      "componentType": 5126,
      "count": 11803,
      "max": [
        0.9999678730964661,
        1.0,
        1.0,
        1.0
      ],
      "min": [
        -0.9999680519104004,
        -1.0,
        -0.9999678134918213,
        -1.0
      ],
      "type": "VEC4"
    },
    {
      "bufferView": 1,
      "byteOffset": 792808,
      "componentType": 5126,
      "count": 11803,
      "max": [
        0.9965999722480774,
        -0.006099999882280827
      ],
      "min": [
        -0.0005000000237487257,
        -1.0002000331878662
      ],
      "type": "VEC2"
    },
    {
      "bufferView": 0,
      "byteOffset": 1349472,
      "componentType": 5125,
      "count": 42570,
      "type": "SCALAR"
    },
    {
      "bufferView": 2,
      "byteOffset": 2661696,
      "componentType": 5126,
      "count": 11803,
      "max": [
        -0.8167889714241028,
        -1.0043790340423584,
        -0.9051079750061035
      ],
      "min": [
        -1.168511986732483,
        -3.277419090270996,
        -1.2568279504776
      ],
      "type": "VEC3"
    },
    {
      "bufferView": 2,
      "byteOffset": 2803332,
      "componentType": 5126,
      "count": 11803,
      "max": [
        0.999994158744812,
        1.0,
        0.9999955892562866
      ],
      "min": [
        -0.9999969601631165,
        -1.0,
        -0.9999955892562866
      ],
      "type": "VEC3"
    },
    {
      "bufferView": 3,
      "byteOffset": 1771584,
      "componentType": 5126,
      "count": 11803,
      "max": [
        0.9999833703041077,
        1.0,
        1.0,
        1.0
      ],
      "min": [
        -0.9999675750732422,
        -1.0,
        -0.9999685883522034,
        -1.0
      ],
      "type": "VEC4"
    },
    {
      "bufferView": 1,
      "byteOffset": 887232,
      "componentType": 5126,
      "count": 11803,
      "max": [
        0.9965999722480774,
        -0.006099999882280827
      ],
      "min": [
        -0.0005000000237487257,
        -1.0002000331878662
      ],
      "type": "VEC2"
    },
    {
      "bufferView": 0,
      "byteOffset": 1519752,
      "componentType": 5125,
      "count": 42570,
      "type": "SCALAR"
    },
    {
      "bufferView": 2,
      "byteOffset": 2944968,
      "componentType": 5126,
      "count": 11803,
      "max": [
        0.9982209801673889,
        2.538641929626465,
        -0.771884024143219
      ],
      "min": [
        0.6185029745101929,
        0.2656019926071167,
        -1.151602029800415
      ],
      "type": "VEC3"
    },
    {
      "bufferView": 2,
      "byteOffset": 3086604,
      "componentType": 5126,
      "count": 11803,
      "max": [
        0.9999917149543762,
        1.0,
        0.9999958872795105
      ],
      "min": [
        -0.9999945163726807,
        -1.0,
        -0.999987781047821
      ],
      "type": "VEC3"
    },
    {
      "bufferView": 3,
      "byteOffset": 1960432,
      "componentType": 5126,
      "count": 11803,
      "max": [
        0.999999463558197,
        1.0,
        1.0,
        1.0
      ],
      "min": [
        -0.999999463558197,
        -1.0,
        -0.9999995827674866,
        -1.0
      ],
      "type": "VEC4"
    },
    {
      "bufferView": 1,
      "byteOffset": 981656,
      "componentType": 5126,
      "count": 11803,
      "max": [
        0.9965999722480774,
        -0.006099999882280827
      ],
      "min": [
        -0.0005000000237487257,
        -1.0002000331878662
      ],
      "type": "VEC2"
    },
    {
      "bufferView": 0,
      "byteOffset": 1690032,
      "componentType": 5125,
      "count": 42570,
      "type": "SCALAR"
    },
    {
      "bufferView": 2,
      "byteOffset": 3228240,
      "componentType": 5126,
      "count": 11803,
      "max": [
        -0.6185029745101929,
        2.538641929626465,
        -0.771884024143219
      ],
      "min": [
        -0.9982209801673889,
        0.2656019926071167,
        -1.151595950126648
      ],
      "type": "VEC3"
    },
    {
      "bufferView": 2,
      "byteOffset": 3369876,
      "componentType": 5126,
      "count": 11803,
      "max": [
        0.9999948143959045,
        1.0,
        0.9999887347221375
      ],
      "min": [
        -0.9999943375587463,
        -1.0,
        -0.9999934434890747
      ],
      "type": "VEC3"
    },
    {
      "bufferView": 3,
      "byteOffset": 2149280,
      "componentType": 5126,
      "count": 11803,
      "max": [
        0.999999463558197,
        1.0,
        1.0,
        1.0
      ],
      "min": [
        -0.9999995231628418,
        -1.0,
        -0.9999916553497314,
        -1.0
      ],
      "type": "VEC4"
    },
    {
      "bufferView": 1,
      "byteOffset": 1076080,
      "componentType": 5126,
      "count": 11803,
      "max": [
        0.9965999722480774,
        -0.006099999882280827
      ],
      "min": [
        -0.0005000000237487257,
        -1.0002000331878662
      ],
      "type": "VEC2"
    },
    {
      "bufferView": 0,
      "byteOffset": 1860312,
      "componentType": 5125,
      "count": 42570,
      "type": "SCALAR"
    },
    {
      "bufferView": 2,
      "byteOffset": 3511512,
      "componentType": 5126,
      "count": 188,
      "max": [
        3.8867599964141846,
        5.64015007019043,
        2.1949000358581543
      ],
      "min": [
        -0.02873999997973442,
        2.136460065841675,
        -0.6191999912261963
      ],
      "type": "VEC3"
    },
    {
      "bufferView": 2,
      "byteOffset": 3513768,
      "componentType": 5126,
      "count": 188,
      "max": [
        0.9994438886642456,
        0.9945522546768188,
        0.9958957433700562
      ],
      "min": [
        -1.0,
        -0.9956170916557312,
        -0.9995257258415222
      ],
      "type": "VEC3"
    },
    {
      "bufferView": 1,
      "byteOffset": 1170504,
      "componentType": 5126,
      "count": 188,
      "max": [
        0.9628999829292297,
        -0.0034000000450760126
      ],
      "min": [
        0.26030001044273376,
        -0.8137000203132629
      ],
      "type": "VEC2"
    },
    {
      "bufferView": 0,
      "byteOffset": 2030592,
      "componentType": 5125,
      "count": 585,
      "type": "SCALAR"
    },
    {
      "bufferView": 2,
      "byteOffset": 3516024,
      "componentType": 5126,
      "count": 6113,
      "max": [
        0.5102199912071228,
        4.852074146270752,
        0.4644100069999695
      ],
      "min": [
        -0.5095900297164917,
        1.2090400457382202,
        -0.5554999709129333
      ],
      "type": "VEC3"
    },
    {
      "bufferView": 2,
      "byteOffset": 3589380,
      "componentType": 5126,
      "count": 6113,
      "max": [
        1.0,
        1.0,
        0.9999923706054688
      ],
      "min": [
        -1.0,
        -1.0,
        -0.9999931454658508
      ],
      "type": "VEC3"
    },
    {
      "bufferView": 3,
      "byteOffset": 2338128,
      "componentType": 5126,
      "count": 6113,
      "max": [
        1.0,
        1.0,
        1.0,
        1.0
      ],
      "min": [
        -1.0,
        -0.999998927116394,
        -0.9999976754188538,
        -1.0
      ],
      "type": "VEC4"
    },
    {
      "bufferView": 1,
      "byteOffset": 1172008,
      "componentType": 5126,
      "count": 6113,
      "max": [
        0.9894999861717224,
        -0.009999999776482582
      ],
      "min": [
        0.010700000450015068,
        -0.9901999831199646
      ],
      "type": "VEC2"
    },
    {
      "bufferView": 0,
      "byteOffset": 2032932,
      "componentType": 5125,
      "count": 11430,
      "type": "SCALAR"
    },
    {
      "bufferView": 2,
      "byteOffset": 3662736,
      "componentType": 5126,
      "count": 2877,
      "max": [
        3.8535099029541016,
        5.862249851226807,
        2.580090045928955
      ],
      "min": [
        -3.8535099029541016,
        -2.903320074081421,
        -0.6692100167274475
      ],
      "type": "VEC3"
    },
    {
      "bufferView": 2,
      "byteOffset": 3697260,
      "componentType": 5126,
      "count": 2877,
      "max": [
        1.0,
        1.0,
        1.0
      ],
      "min": [
        -1.0,
        -1.0,
        -1.0
      ],
      "type": "VEC3"
    },
    {
      "bufferView": 3,
      "byteOffset": 2435936,
      "componentType": 5126,
      "count": 2877,
      "max": [
        1.0,
        1.0,
        1.0,
        1.0
      ],
      "min": [
        -1.0,
        -1.0,
        -1.0,
        -1.0
      ],
      "type": "VEC4"
    },
    {
      "bufferView": 1,
      "byteOffset": 1220912,
      "componentType": 5126,
      "count": 2877,
      "max": [
        0.9883000254631042,
        -0.3447999954223633
      ],
      "min": [
        0.010999999940395355,
        -0.9855999946594238
      ],
      "type": "VEC2"
    },
    {
      "bufferView": 0,
      "byteOffset": 2078652,
      "componentType": 5125,
      "count": 7215,
      "type": "SCALAR"
    },
    {
      "bufferView": 2,
      "byteOffset": 3731784,
      "componentType": 5126,
      "count": 902,
      "max": [
        0.3808499872684479,
        -4.218677043914795,
        0.6219559907913208
      ],
      "min": [
        -0.3808499872684479,
        -6.741660118103027,
        -0.7720739841461182
      ],
      "type": "VEC3"
    },
    {
      "bufferView": 2,
      "byteOffset": 3742608,
      "componentType": 5126,
      "count": 902,
      "max": [
        1.0,
        0.9921350479125977,
        0.9999855160713196
      ],
      "min": [
        -1.0,
        -0.99113529920578,
        -0.999715268611908
      ],
      "type": "VEC3"
    },
    {
      "bufferView": 1,
      "byteOffset": 1243928,
      "componentType": 5126,
      "count": 902,
      "max": [
        1.0059000253677368,
        5.968999862670898
      ],
      "min": [
        -0.00559999980032444,
        -1.0082999467849731
      ],
      "type": "VEC2"
    },
    {
      "bufferView": 0,
      "byteOffset": 2107512,
      "componentType": 5125,
      "count": 3762,
      "type": "SCALAR"
    },
    {
      "bufferView": 2,
      "byteOffset": 3753432,
      "componentType": 5126,
      "count": 7221,
      "max": [
        0.8072400093078613,
        1.919569969177246,
        -0.6402000188827515
      ],
      "min": [
        -0.8088700175285339,
        0.7832199931144714,
        -0.9185699820518494
      ],
      "type": "VEC3"
    },
    {
      "bufferView": 2,
      "byteOffset": 3840084,
      "componentType": 5126,
      "count": 7221,
      "max": [
        0.9989368319511414,
        1.0,
        0.9993295073509216
      ],
      "min": [
        -1.0,
        -1.0,
        -0.9962544441223145
      ],
      "type": "VEC3"
    },
    {
      "bufferView": 3,
      "byteOffset": 2481968,
      "componentType": 5126,
      "count": 7221,
      "max": [
        0.9813239574432373,
        1.0,
        0.9998615384101868,
        1.0
      ],
      "min": [
        -0.9809898138046265,
        -1.0,
        -0.9998708963394165,
        -1.0
      ],
      "type": "VEC4"
    },
    {
      "bufferView": 1,
      "byteOffset": 1251144,
      "componentType": 5126,
      "count": 7221,
      "max": [
        0.9958000183105469,
        -0.00419999985024333
      ],
      "min": [
        0.0,
        -0.9887999892234802
      ],
      "type": "VEC2"
    },
    {
      "bufferView": 0,
      "byteOffset": 2122560,
      "componentType": 5125,
      "count": 21168,
      "type": "SCALAR"
    },
    {
      "bufferView": 2,
      "byteOffset": 3926736,
      "componentType": 5126,
      "count": 130,
      "max": [
        3.4731600284576416,
        2.5679900646209717,
        -0.4785799980163574
      ],
      "min": [
        -3.4731600284576416,
        2.508120059967041,
        -0.4957199990749359
      ],
      "type": "VEC3"
    },
    {
      "bufferView": 2,
      "byteOffset": 3928296,
      "componentType": 5126,
      "count": 130,
      "max": [
        0.9963718056678772,
        0.9961104393005371,
        0.9996743202209473
      ],
      "min": [
        -0.9963718056678772,
        -0.996422290802002,
        -0.018344439566135406
      ],
      "type": "VEC3"
    },
    {
      "bufferView": 1,
      "byteOffset": 1308912,
      "componentType": 5126,
      "count": 130,
      "max": [
        0.9650999903678894,
        -0.13500000536441803
      ],
      "min": [
        0.5758000016212463,
        -0.44200000166893005
      ],
      "type": "VEC2"
    },
    {
      "bufferView": 0,
      "byteOffset": 2207232,
      "componentType": 5125,
      "count": 588,
      "type": "SCALAR"
    },
    {
      "bufferView": 2,
      "byteOffset": 3929856,
      "componentType": 5126,
      "count": 9256,
      "max": [
        1.0718209743499756,
        -1.6655470132827759,
        -0.5273240208625793
      ],
      "min": [
        -1.0718209743499756,
        -3.291066884994507,
        -1.045524001121521
      ],
      "type": "VEC3"
    },
    {
      "bufferView": 2,
      "byteOffset": 4040928,
      "componentType": 5126,
      "count": 9256,
      "max": [
        1.0,
        1.0,
        1.0
      ],
      "min": [
        -1.0,
        -1.0,
        -1.0
      ],
      "type": "VEC3"
    },
    {
      "bufferView": 3,
      "byteOffset": 2597504,
      "componentType": 5126,
      "count": 9256,
      "max": [
        1.0,
        1.0,
        1.0,
        1.0
      ],
      "min": [
        -1.0,
        -1.0,
        -0.9984578490257263,
        -1.0
      ],
      "type": "VEC4"
    },
    {
      "bufferView": 1,
      "byteOffset": 1309952,
      "componentType": 5126,
      "count": 9256,
      "max": [
        0.9937000274658203,
        -0.023000000044703484
      ],
      "min": [
        0.004600000102072954,
        -0.9733999967575073
      ],
      "type": "VEC2"
    },
    {
      "bufferView": 0,
      "byteOffset": 2209584,
      "componentType": 5125,
      "count": 27852,
      "type": "SCALAR"
    },
    {
      "bufferView": 2,
      "byteOffset": 4152000,
      "componentType": 5126,
      "count": 12140,
      "max": [
        1.6265660524368286,
        0.43659499287605286,
        -0.0196090005338192
      ],
      "min": [
        -1.8396530151367188,
        -3.3392889499664307,
        -0.8192920088768005
      ],
      "type": "VEC3"
    },
    {
      "bufferView": 2,
      "byteOffset": 4297680,
      "componentType": 5126,
      "count": 12140,
      "max": [
        1.0,
        1.0,
        0.9999991059303284
      ],
      "min": [
        -1.0,
        -1.0,
        -0.9999992847442627
      ],
      "type": "VEC3"
    },
    {
      "bufferView": 3,
      "byteOffset": 2745600,
      "componentType": 5126,
      "count": 12140,
      "max": [
        1.0,
        1.0,
        1.0,
        1.0
      ],
      "min": [
        -1.0,
        -1.0,
        -1.0,
        -1.0
      ],
      "type": "VEC4"
    },
    {
      "bufferView": 1,
      "byteOffset": 1384000,
      "componentType": 5126,
      "count": 12140,
      "max": [
        0.9984999895095825,
        -0.0010000000474974513
      ],
      "min": [
        0.00419999985024333,
        -0.9932000041007996
      ],
      "type": "VEC2"
    },
    {
      "bufferView": 0,
      "byteOffset": 2320992,
      "componentType": 5125,
      "count": 32919,
      "type": "SCALAR"
    },
    {
      "bufferView": 2,
      "byteOffset": 4443360,
      "componentType": 5126,
      "count": 12141,
      "max": [
        4.026549816131592,
        2.752079963684082,
        -0.32468000054359436
      ],
      "min": [
        -4.026549816131592,
        -2.903320074081421,
        -0.7234299778938293
      ],
      "type": "VEC3"
    },
    {
      "bufferView": 2,
      "byteOffset": 4589052,
      "componentType": 5126,
      "count": 12141,
      "max": [
        1.0,
        1.0,
        1.0
      ],
      "min": [
        -1.0,
        -1.0,
        -1.0
      ],
      "type": "VEC3"
    },
    {
      "bufferView": 3,
      "byteOffset": 2939840,
      "componentType": 5126,
      "count": 12141,
      "max": [
        1.0,
        1.0,
        1.0,
        1.0
      ],
      "min": [
        -1.0,
        -1.0,
        -1.0,
        -1.0
      ],
      "type": "VEC4"
    },
    {
      "bufferView": 1,
      "byteOffset": 1481120,
      "componentType": 5126,
      "count": 12141,
      "max": [
        0.9973000288009644,
        -0.0020000000949949026
      ],
      "min": [
        0.002899999963119626,
        -0.9983000159263611
      ],
      "type": "VEC2"
    },
    {
      "bufferView": 0,
      "byteOffset": 2452668,
      "componentType": 5125,
      "count": 37677,
      "type": "SCALAR"
    },
    {
      "bufferView": 2,
      "byteOffset": 4734744,
      "componentType": 5126,
      "count": 11436,
      "max": [
        1.1570260524749756,
        5.66261100769043,
        1.9805469512939453
      ],
      "min": [
        -0.9768019914627075,
        -5.973658084869385,
        -0.7929739952087402
      ],
      "type": "VEC3"
    },
    {
      "bufferView": 2,
      "byteOffset": 4871976,
      "componentType": 5126,
      "count": 11436,
      "max": [
        1.0,
        1.0,
        1.0
      ],
      "min": [
        -1.0,
        -1.0,
        -1.0
      ],
      "type": "VEC3"
    },
    {
      "bufferView": 3,
      "byteOffset": 3134096,
      "componentType": 5126,
      "count": 11436,
      "max": [
        1.0,
        1.0,
        1.0,
        1.0
      ],
      "min": [
        -1.0,
        -1.0,
        -1.0,
        -1.0
      ],
      "type": "VEC4"
    },
    {
      "bufferView": 1,
      "byteOffset": 1578248,
      "componentType": 5126,
      "count": 11436,
      "max": [
        0.9961000084877014,
        -0.002199999988079071
      ],
      "min": [
        0.0027000000700354576,
        -0.9977999925613403
      ],
      "type": "VEC2"
    },
    {
      "bufferView": 0,
      "byteOffset": 2603376,
      "componentType": 5125,
      "count": 37035,
      "type": "SCALAR"
    },
    {
      "bufferView": 2,
      "byteOffset": 5009208,
      "componentType": 5126,
      "count": 7707,
      "max": [
        0.04329000040888786,
        3.4478299617767334,
        -0.30105501413345337
      ],
      "min": [
        -4.108516216278076,
        -4.734286785125732,
        -0.7212100028991699
      ],
      "type": "VEC3"
    },
    {
      "bufferView": 2,
      "byteOffset": 5101692,
      "componentType": 5126,
      "count": 7707,
      "max": [
        1.0,
        0.9999717473983765,
        0.9999988675117493
      ],
      "min": [
        -1.0,
        -1.0,
        -0.9999989867210388
      ],
      "type": "VEC3"
    },
    {
      "bufferView": 3,
      "byteOffset": 3317072,
      "componentType": 5126,
      "count": 7707,
      "max": [
        1.0,
        1.0,
        0.9999983310699463,
        1.0
      ],
      "min": [
        -1.0,
        -1.0,
        -1.0,
        -1.0
      ],
      "type": "VEC4"
    },
    {
      "bufferView": 1,
      "byteOffset": 1669736,
      "componentType": 5126,
      "count": 7707,
      "max": [
        0.9948999881744385,
        -0.002199999988079071
      ],
      "min": [
        0.0027000000700354576,
        -0.9763000011444092
      ],
      "type": "VEC2"
    },
    {
      "bufferView": 0,
      "byteOffset": 2751516,
      "componentType": 5125,
      "count": 22023,
      "type": "SCALAR"
    },
    {
      "bufferView": 2,
      "byteOffset": 5194176,
      "componentType": 5126,
      "count": 8506,
      "max": [
        0.5706999897956848,
        2.897170066833496,
        -0.5083370208740234
      ],
      "min": [
        -0.5706999897956848,
        -5.145071983337402,
        -0.896809995174408
      ],
      "type": "VEC3"
    },
    {
      "bufferView": 2,
      "byteOffset": 5296248,
      "componentType": 5126,
      "count": 8506,
      "max": [
        1.0,
        1.0,
        0.9999929666519165
      ],
      "min": [
        -1.0,
        -0.9999954104423523,
        -0.9999662637710571
      ],
      "type": "VEC3"
    },
    {
      "bufferView": 3,
      "byteOffset": 3440384,
      "componentType": 5126,
      "count": 8506,
      "max": [
        1.0,
        1.0,
        1.0,
        1.0
      ],
      "min": [
        -1.0,
        -1.0,
        -0.9999969601631165,
        -1.0
      ],
      "type": "VEC4"
    },
    {
      "bufferView": 1,
      "byteOffset": 1731392,
      "componentType": 5126,
      "count": 8506,
      "max": [
        0.9970999956130981,
        -0.002400000113993883
      ],
      "min": [
        0.002899999963119626,
        -0.9670000076293945
      ],
      "type": "VEC2"
    },
    {
      "bufferView": 0,
      "byteOffset": 2839608,
      "componentType": 5125,
      "count": 24618,
      "type": "SCALAR"
    },
    {
      "bufferView": 2,
      "byteOffset": 5398320,
      "componentType": 5126,
      "count": 11626,
      "max": [
        0.7099900245666504,
        5.668970108032227,
        2.370680093765259
      ],
      "min": [
        -0.9470300078392029,
        -8.088179588317871,
        -1.102239966392517
      ],
      "type": "VEC3"
    },
    {
      "bufferView": 2,
      "byteOffset": 5537832,
      "componentType": 5126,
      "count": 11626,
      "max": [
        1.0,
        1.0,
        1.0
      ],
      "min": [
        -1.0,
        -1.0,
        -1.0
      ],
      "type": "VEC3"
    },
    {
      "bufferView": 3,
      "byteOffset": 3576480,
      "componentType": 5126,
      "count": 11626,
      "max": [
        1.0,
        1.0,
        1.0,
        1.0
      ],
      "min": [
        -1.0,
        -1.0,
        -1.0,
        -1.0
      ],
      "type": "VEC4"
    },
    {
      "bufferView": 1,
      "byteOffset": 1799440,
      "componentType": 5126,
      "count": 11626,
      "max": [
        0.9993000030517578,
        -0.0027000000700354576
      ],
      "min": [
        0.0012000000569969416,
        -0.9980000257492065
      ],
      "type": "VEC2"
    },
    {
      "bufferView": 0,
      "byteOffset": 2938080,
      "componentType": 5125,
      "count": 43905,
      "type": "SCALAR"
    },
    {
      "bufferView": 2,
      "byteOffset": 5677344,
      "componentType": 5126,
      "count": 17302,
      "max": [
        1.8379700183868408,
        5.7174201011657715,
        2.095989942550659
      ],
      "min": [
        -1.8379700183868408,
        -8.149800300598145,
        -0.9267600178718567
      ],
      "type": "VEC3"
    },
    {
      "bufferView": 2,
      "byteOffset": 5884968,
      "componentType": 5126,
      "count": 17302,
      "max": [
        1.0,
        1.0,
        1.0
      ],
      "min": [
        -1.0,
        -1.0,
        -1.0
      ],
      "type": "VEC3"
    },
    {
      "bufferView": 3,
      "byteOffset": 3762496,
      "componentType": 5126,
      "count": 17302,
      "max": [
        1.0,
        1.0,
        1.0,
        1.0
      ],
      "min": [
        -1.0,
        -1.0,
        -1.0,
        -1.0
      ],
      "type": "VEC4"
    },
    {
      "bufferView": 1,
      "byteOffset": 1892448,
      "componentType": 5126,
      "count": 17302,
      "max": [
        0.9987999796867371,
        -0.002199999988079071
      ],
      "min": [
        0.002899999963119626,
        -0.9984999895095825
      ],
      "type": "VEC2"
    },
    {
      "bufferView": 0,
      "byteOffset": 3113700,
      "componentType": 5125,
      "count": 65535,
      "type": "SCALAR"
    },
    {
      "bufferView": 2,
      "byteOffset": 6092592,
      "componentType": 5126,
      "count": 21182,
      "max": [
        0.932479977607727,
        5.944240093231201,
        2.5837199687957764
      ],
      "min": [
        -0.932479977607727,
        -6.741660118103027,
        -0.8341100215911865
      ],
      "type": "VEC3"
    },
    {
      "bufferView": 2,
      "byteOffset": 6346776,
      "componentType": 5126,
      "count": 21182,
      "max": [
        1.0,
        1.0,
        1.0
      ],
      "min": [
        -1.0,
        -1.0,
        -1.0
      ],
      "type": "VEC3"
    },
    {
      "bufferView": 3,
      "byteOffset": 4039328,
      "componentType": 5126,
      "count": 21182,
      "max": [
        1.0,
        1.0,
        1.0,
        1.0
      ],
      "min": [
        -1.0,
        -1.0,
        -1.0,
        -1.0
      ],
      "type": "VEC4"
    },
    {
      "bufferView": 1,
      "byteOffset": 2030864,
      "componentType": 5126,
      "count": 21182,
      "max": [
        0.9983000159263611,
        -0.002400000113993883
      ],
      "min": [
        0.002899999963119626,
        -0.987500011920929
      ],
      "type": "VEC2"
    },
    {
      "bufferView": 0,
      "byteOffset": 3375840,
      "componentType": 5125,
      "count": 65526,
      "type": "SCALAR"
    },
    {
      "bufferView": 2,
      "byteOffset": 6600960,
      "componentType": 5126,
      "count": 9498,
      "max": [
        4.108517169952393,
        5.466163158416748,
        0.7309780120849609
      ],
      "min": [
        -2.5986170768737793,
        -5.715912818908691,
        -0.8248929977416992
      ],
      "type": "VEC3"
    },
    {
      "bufferView": 2,
      "byteOffset": 6714936,
      "componentType": 5126,
      "count": 9498,
      "max": [
        1.0,
        1.0,
        0.9999998807907104
      ],
      "min": [
        -1.0,
        -1.0,
        -0.9999998807907104
      ],
      "type": "VEC3"
    },
    {
      "bufferView": 3,
      "byteOffset": 4378240,
      "componentType": 5126,
      "count": 9498,
      "max": [
        1.0,
        1.0,
        1.0,
        1.0
      ],
      "min": [
        -1.0,
        -1.0,
        -1.0,
        -1.0
      ],
      "type": "VEC4"
    },
    {
      "bufferView": 1,
      "byteOffset": 2200320,
      "componentType": 5126,
      "count": 9498,
      "max": [
        0.9940999746322632,
        -0.0010000000474974513
      ],
      "min": [
        0.0027000000700354576,
        -0.9976000189781189
      ],
      "type": "VEC2"
    },
    {
      "bufferView": 0,
      "byteOffset": 3637944,
      "componentType": 5125,
      "count": 29349,
      "type": "SCALAR"
    },
    {
      "bufferView": 2,
      "byteOffset": 6828912,
      "componentType": 5126,
      "count": 9817,
      "max": [
        1.8396539688110352,
        0.43662598729133606,
        -0.36751100420951843
      ],
      "min": [
        -0.22010000050067902,
        -5.21080207824707,
        -0.8192830085754395
      ],
      "type": "VEC3"
    },
    {
      "bufferView": 2,
      "byteOffset": 6946716,
      "componentType": 5126,
      "count": 9817,
      "max": [
        1.0,
        1.0,
        1.0
      ],
      "min": [
        -1.0,
        -1.0,
        -0.9999991059303284
      ],
      "type": "VEC3"
    },
    {
      "bufferView": 3,
      "byteOffset": 4530208,
      "componentType": 5126,
      "count": 9817,
      "max": [
        1.0,
        1.0,
        1.0,
        1.0
      ],
      "min": [
        -1.0,
        -1.0,
        -1.0,
        -1.0
      ],
      "type": "VEC4"
    },
    {
      "bufferView": 1,
      "byteOffset": 2276304,
      "componentType": 5126,
      "count": 9817,
      "max": [
        0.9984999895095825,
        -0.0012000000569969416
      ],
      "min": [
        0.002899999963119626,
        -0.9980000257492065
      ],
      "type": "VEC2"
    },
    {
      "bufferView": 0,
      "byteOffset": 3755340,
      "componentType": 5125,
      "count": 27444,
      "type": "SCALAR"
    },
    {
      "bufferView": 2,
      "byteOffset": 7064520,
      "componentType": 5126,
      "count": 160,
      "max": [
        0.13200999796390533,
        5.64015007019043,
        2.1650099754333496
      ],
      "min": [
        -0.13200999796390533,
        -4.306559085845947,
        -0.7284359931945801
      ],
      "type": "VEC3"
    },
    {
      "bufferView": 2,
      "byteOffset": 7066440,
      "componentType": 5126,
      "count": 160,
      "max": [
        1.0,
        0.9925320744514465,
        0.9926440119743347
      ],
      "min": [
        -1.0,
        -0.992530882358551,
        -0.9916690587997437
      ],
      "type": "VEC3"
    },
    {
      "bufferView": 1,
      "byteOffset": 2354840,
      "componentType": 5126,
      "count": 160,
      "max": [
        0.9628999829292297,
        -0.006099999882280827
      ],
      "min": [
        0.273499995470047,
        -0.23929999768733978
      ],
      "type": "VEC2"
    },
    {
      "bufferView": 0,
      "byteOffset": 3865116,
      "componentType": 5125,
      "count": 744,
      "type": "SCALAR"
    },
    {
      "bufferView": 2,
      "byteOffset": 7068360,
      "componentType": 5126,
      "count": 9023,
      "max": [
        -2.038789987564087,
        0.5884699821472168,
        -0.7498000264167786
      ],
      "min": [
        -2.4912099838256836,
        -0.9884600043296814,
        -1.1823899745941162
      ],
      "type": "VEC3"
    },
    {
      "bufferView": 2,
      "byteOffset": 7176636,
      "componentType": 5126,
      "count": 9023,
      "max": [
        1.0,
        1.0,
        1.0
      ],
      "min": [
        -1.0,
        -1.0,
        -1.0
      ],
      "type": "VEC3"
    },
    {
      "bufferView": 3,
      "byteOffset": 4687280,
      "componentType": 5126,
      "count": 9023,
      "max": [
        1.0,
        1.0,
        1.0,
        1.0
      ],
      "min": [
        -1.0,
        -1.0,
        -1.0,
        -1.0
      ],
      "type": "VEC4"
    },
    {
      "bufferView": 1,
      "byteOffset": 2356120,
      "componentType": 5126,
      "count": 9023,
      "max": [
        0.9970999956130981,
        -0.0027000000700354576
      ],
      "min": [
        0.0034000000450760126,
        -0.9980000257492065
      ],
      "type": "VEC2"
    },
    {
      "bufferView": 0,
      "byteOffset": 3868092,
      "componentType": 5125,
      "count": 25056,
      "type": "SCALAR"
    },
    {
      "bufferView": 2,
      "byteOffset": 7284912,
      "componentType": 5126,
      "count": 9023,
      "max": [
        2.4912099838256836,
        0.5884699821472168,
        -0.7498000264167786
      ],
      "min": [
        2.038789987564087,
        -0.9884600043296814,
        -1.1823899745941162
      ],
      "type": "VEC3"
    },
    {
      "bufferView": 2,
      "byteOffset": 7393188,
      "componentType": 5126,
      "count": 9023,
      "max": [
        1.0,
        1.0,
        1.0
      ],
      "min": [
        -1.0,
        -1.0,
        -1.0
      ],
      "type": "VEC3"
    },
    {
      "bufferView": 3,
      "byteOffset": 4831648,
      "componentType": 5126,
      "count": 9023,
      "max": [
        1.0,
        1.0,
        1.0,
        1.0
      ],
      "min": [
        -1.0,
        -1.0,
        -1.0,
        -1.0
      ],
      "type": "VEC4"
    },
    {
      "bufferView": 1,
      "byteOffset": 2428304,
      "componentType": 5126,
      "count": 9023,
      "max": [
        0.9970999956130981,
        -0.0027000000700354576
      ],
      "min": [
        0.0034000000450760126,
        -0.9980000257492065
      ],
      "type": "VEC2"
    },
    {
      "bufferView": 0,
      "byteOffset": 3968316,
      "componentType": 5125,
      "count": 25056,
      "type": "SCALAR"
    },
    {
      "bufferView": 2,
      "byteOffset": 7501464,
      "componentType": 5126,
      "count": 11345,
      "max": [
        0.27973100543022156,
        -4.671027183532715,
        0.5982879996299744
      ],
      "min": [
        -0.25332900881767273,
        -5.8458380699157715,
        -0.6236019730567932
      ],
      "type": "VEC3"
    },
    {
      "bufferView": 2,
      "byteOffset": 7637604,
      "componentType": 5126,
      "count": 11345,
      "max": [
        1.0,
        0.9999923706054688,
        0.9999774694442749
      ],
      "min": [
        -1.0,
        -0.999995768070221,
        -0.9999830722808838
      ],
      "type": "VEC3"
    },
    {
      "bufferView": 3,
      "byteOffset": 4976016,
      "componentType": 5126,
      "count": 11345,
      "max": [
        1.0,
        0.9999862909317017,
        0.9999366998672485,
        1.0
      ],
      "min": [
        -1.0,
        -1.0,
        -0.9999924898147583,
        -1.0
      ],
      "type": "VEC4"
    },
    {
      "bufferView": 1,
      "byteOffset": 2500488,
      "componentType": 5126,
      "count": 11345,
      "max": [
        0.9954000115394592,
        -0.004600000102072954
      ],
      "min": [
        0.0038999998942017555,
        -0.9962999820709229
      ],
      "type": "VEC2"
    },
    {
      "bufferView": 0,
      "byteOffset": 4068540,
      "componentType": 5125,
      "count": 28635,
      "type": "SCALAR"
    }
  ],
  "asset": {
    "extras": {
      "author": "Jeyhun1985 (https://sketchfab.com/Jeyhun1985)",
      "license": "CC-BY-4.0 (http://creativecommons.org/licenses/by/4.0/)",
      "source": "https://sketchfab.com/3d-models/kfir-c10-block-60-c6534a1cac1e4a13817ac6f8eb35fe96",
      "title": "Kfir C.10 Block 60"
    },
    "generator": "Sketchfab-17.15.0",
    "version": "2.0"
  },
  "bufferViews": [
    {
      "buffer": 0,
      "byteLength": 4183080,
      "name": "floatBufferViews",
      "target": 34963
    },
    {
      "buffer": 0,
      "byteLength": 2591248,
      "byteOffset": 4183080,
      "byteStride": 8,
      "name": "floatBufferViews",
      "target": 34962
    },
    {
      "buffer": 0,
      "byteLength": 7773744,
      "byteOffset": 6774328,
      "byteStride": 12,
      "name": "floatBufferViews",
      "target": 34962
    },
    {
      "buffer": 0,
      "byteLength": 5157536,
      "byteOffset": 14548072,
      "byteStride": 16,
      "name": "floatBufferViews",
      "target": 34962
    }
  ],
  "buffers": [
    {
      "byteLength": 19705608,
      "uri": "scene.bin"
    }
  ],
  "images": [
    {
      "uri": "textures/095ced92-bef2-40e2-b4d2-d94aebe4a9de_baseColor.jpeg"
    },
    {
      "uri": "textures/095ced92-bef2-40e2-b4d2-d94aebe4a9de_metallicRoughness.png"
    },
    {
      "uri": "textures/095ced92-bef2-40e2-b4d2-d94aebe4a9de_normal.png"
    },
    {
      "uri": "textures/5b7b3a9b-0995-4ef0-8b32-4e6ee60048ed_baseColor.jpeg"
    },
    {
      "uri": "textures/5b7b3a9b-0995-4ef0-8b32-4e6ee60048ed_metallicRoughness.png"
    },
    {
      "uri": "textures/5b7b3a9b-0995-4ef0-8b32-4e6ee60048ed_normal.png"
    },
    {
      "uri": "textures/5c1e6dda-ec9d-427d-b4e6-5abda005d910_baseColor.jpeg"
    },
    {
      "uri": "textures/5c1e6dda-ec9d-427d-b4e6-5abda005d910_metallicRoughness.png"
    },
    {
      "uri": "textures/5c1e6dda-ec9d-427d-b4e6-5abda005d910_normal.png"
    },
    {
      "uri": "textures/6558f8b2-ea2e-4949-9fed-1414e87c1b29_baseColor.jpeg"
    },
    {
      "uri": "textures/6558f8b2-ea2e-4949-9fed-1414e87c1b29_metallicRoughness.png"
    },
    {
      "uri": "textures/6558f8b2-ea2e-4949-9fed-1414e87c1b29_normal.png"
    },
    {
      "uri": "textures/8a0f264b-eb7c-41ba-9184-91f81217d9cb_baseColor.jpeg"
    },
    {
      "uri": "textures/8a0f264b-eb7c-41ba-9184-91f81217d9cb_metallicRoughness.png"
    },
    {
      "uri": "textures/8a0f264b-eb7c-41ba-9184-91f81217d9cb_normal.png"
    },
    {
      "uri": "textures/9093e2ab-7335-4127-a82a-41b8d164e5f6_baseColor.png"
    },
    {
      "uri": "textures/9093e2ab-7335-4127-a82a-41b8d164e5f6_metallicRoughness.png"
    },
    {
      "uri": "textures/9093e2ab-7335-4127-a82a-41b8d164e5f6_normal.png"
    },
    {
      "uri": "textures/9d76adf7-d308-4be5-8e5e-5875b886b3cc_baseColor.jpeg"
    },
    {
      "uri": "textures/9d76adf7-d308-4be5-8e5e-5875b886b3cc_metallicRoughness.png"
    },
    {
      "uri": "textures/9d76adf7-d308-4be5-8e5e-5875b886b3cc_normal.png"
    },
    {
      "uri": "textures/c4db06d0-ee4c-43ed-afb4-352a15909bcc_baseColor.jpeg"
    },
    {
      "uri": "textures/c4db06d0-ee4c-43ed-afb4-352a15909bcc_metallicRoughness.png"
    },
    {
      "uri": "textures/c4db06d0-ee4c-43ed-afb4-352a15909bcc_normal.png"
    },
    {
      "uri": "textures/dfa1d374-608d-40eb-b7a7-8463cdec0fee_baseColor.jpeg"
    },
    {
      "uri": "textures/dfa1d374-608d-40eb-b7a7-8463cdec0fee_metallicRoughness.png"
    },
    {
      "uri": "textures/dfa1d374-608d-40eb-b7a7-8463cdec0fee_normal.png"
    },
    {
      "uri": "textures/f4748257-d01b-4514-a995-77f645c32a40_baseColor.jpeg"
    },
    {
      "uri": "textures/f4748257-d01b-4514-a995-77f645c32a40_metallicRoughness.png"
    },
    {
      "uri": "textures/f4748257-d01b-4514-a995-77f645c32a40_normal.png"
    },
    {
      "uri": "textures/fea4cee0-b6d3-48df-8c74-28799821016a_baseColor.jpeg"
    },
    {
      "uri": "textures/fea4cee0-b6d3-48df-8c74-28799821016a_metallicRoughness.png"
    },
    {
      "uri": "textures/fea4cee0-b6d3-48df-8c74-28799821016a_normal.png"
    }
  ],
  "materials": [
    {
      "doubleSided": true,
      "emissiveFactor": [
        0.3,
        0.3,
        0.3
      ],
      "emissiveTexture": {
        "index": 0
      },
      "name": "095ced92-bef2-40e2-b4d2-d94aebe4a9de",
      "normalTexture": {
        "index": 2
      },
      "occlusionTexture": {
        "index": 1
      },
      "pbrMetallicRoughness": {
        "baseColorTexture": {
          "index": 0
        },
        "metallicRoughnessTexture": {
          "index": 1
        },
        "roughnessFactor": 0.5
      }
    },
    {
      "doubleSided": true,
      "emissiveFactor": [
        0.5,
        0.5,
        0.5
      ],
      "emissiveTexture": {
        "index": 3
      },
      "name": "5b7b3a9b-0995-4ef0-8b32-4e6ee60048ed",
      "normalTexture": {
        "index": 5
      },
      "occlusionTexture": {
        "index": 4
      },
      "pbrMetallicRoughness": {
        "baseColorTexture": {
          "index": 3
        },
        "metallicRoughnessTexture": {
          "index": 4
        },
        "roughnessFactor": 0.4
      }
    },
    {
      "doubleSided": true,
      "emissiveFactor": [
        0.3,
        0.3,
        0.3
      ],
      "emissiveTexture": {
        "index": 6
      },
      "name": "5c1e6dda-ec9d-427d-b4e6-5abda005d910",
      "normalTexture": {
        "index": 8
      },
      "occlusionTexture": {
        "index": 7
      },
      "pbrMetallicRoughness": {
        "baseColorTexture": {
          "index": 6
        },
        "metallicRoughnessTexture": {
          "index": 7
        },
        "roughnessFactor": 0.5
      }
    },
    {
      "doubleSided": true,
      "emissiveFactor": [
        0.4,
        0.4,
        0.4
      ],
      "emissiveTexture": {
        "index": 9
      },
      "name": "6558f8b2-ea2e-4949-9fed-1414e87c1b29",
      "normalTexture": {
        "index": 11
      },
      "occlusionTexture": {
        "index": 10
      },
      "pbrMetallicRoughness": {
        "baseColorTexture": {
          "index": 9
        },
        "metallicRoughnessTexture": {
          "index": 10
        },
        "roughnessFactor": 0.4
      }
    },
    {
      "alphaMode": "BLEND",
      "doubleSided": true,
      "name": "6e7a90d6-880b-41f5-8601-e1c099da6e78",
      "pbrMetallicRoughness": {
        "baseColorFactor": [
          1.0,
          0.0,
          1.0,
          0.0
        ],
        "metallicFactor": 0.05,
        "roughnessFactor": 0.9843196729605512
      }
    },
    {
      "alphaMode": "BLEND",
      "doubleSided": true,
      "name": "76020fdf-b6bf-4fab-9073-3dfc348a9e4d",
      "pbrMetallicRoughness": {
        "baseColorFactor": [
          0.0,
          0.0,
          0.0,
          0.7
        ],
        "metallicFactor": 0.0,
        "roughnessFactor": 0.09999999999999998
      }
    },
    {
      "doubleSided": true,
      "emissiveFactor": [
        0.3,
        0.3,
        0.3
      ],
      "emissiveTexture": {
        "index": 12
      },
      "name": "8a0f264b-eb7c-41ba-9184-91f81217d9cb",
      "normalTexture": {
        "index": 14
      },
      "occlusionTexture": {
        "index": 13
      },
      "pbrMetallicRoughness": {
        "baseColorTexture": {
          "index": 12
        },
        "metallicRoughnessTexture": {
          "index": 13
        },
        "roughnessFactor": 0.4
      }
    },
    {
      "alphaMode": "BLEND",
      "doubleSided": true,
      "name": "8a903af4-481c-4d9d-be6b-b0f6fe27fe94",
      "pbrMetallicRoughness": {
        "baseColorFactor": [
          0.0,
          0.0,
          0.0,
          0.6
        ],
        "metallicFactor": 0.0,
        "roughnessFactor": 0.09999999999999998
      }
    },
    {
      "alphaMode": "BLEND",
      "doubleSided": true,
      "name": "9093e2ab-7335-4127-a82a-41b8d164e5f6",
      "normalTexture": {
        "index": 17
      },
      "pbrMetallicRoughness": {
        "baseColorTexture": {
          "index": 15
        },
        "metallicFactor": 0.05,
        "metallicRoughnessTexture": {
          "index": 16
        }
      }
    },
    {
      "alphaMode": "BLEND",
      "doubleSided": true,
      "name": "9a9ee99d-dca1-40db-b2cf-7adfe2219ff5",
      "pbrMetallicRoughness": {
        "baseColorFactor": [
          0.0,
          0.0,
          0.0,
          0.3
        ],
        "metallicFactor": 0.0,
        "roughnessFactor": 0.09999999999999998
      }
    },
    {
      "doubleSided": true,
      "name": "9d76adf7-d308-4be5-8e5e-5875b886b3cc",
      "normalTexture": {
        "index": 20
      },
      "occlusionTexture": {
        "index": 19
      },
      "pbrMetallicRoughness": {
        "baseColorTexture": {
          "index": 18
        },
        "metallicRoughnessTexture": {
          "index": 19
        },
        "roughnessFactor": 0.3
      }
    },
    {
      "alphaMode": "BLEND",
      "doubleSided": true,
      "name": "9ffba7a6-a0f8-4e6e-9db5-c3061e9380e7",
      "pbrMetallicRoughness": {
        "baseColorFactor": [
          0.0,
          0.0,
          0.0,
          0.6
        ],
        "metallicFactor": 0.0,
        "roughnessFactor": 0.09999999999999998
      }
    },
    {
      "doubleSided": true,
      "name": "c4db06d0-ee4c-43ed-afb4-352a15909bcc",
      "normalTexture": {
        "index": 23
      },
      "occlusionTexture": {
        "index": 22
      },
      "pbrMetallicRoughness": {
        "baseColorTexture": {
          "index": 21
        },
        "metallicRoughnessTexture": {
          "index": 22
        },
        "roughnessFactor": 0.5
      }
    },
    {
      "doubleSided": true,
      "emissiveFactor": [
        0.3,
        0.3,
        0.3
      ],
      "emissiveTexture": {
        "index": 24
      },
      "name": "dfa1d374-608d-40eb-b7a7-8463cdec0fee",
      "normalTexture": {
        "index": 26
      },
      "occlusionTexture": {
        "index": 25
      },
      "pbrMetallicRoughness": {
        "baseColorTexture": {
          "index": 24
        },
        "metallicRoughnessTexture": {
          "index": 25
        },
        "roughnessFactor": 0.5
      }
    },
    {
      "alphaMode": "BLEND",
      "doubleSided": true,
      "name": "f3ff5198-0818-4c08-bb18-4beefc1efc98",
      "pbrMetallicRoughness": {
        "baseColorFactor": [
          0.0,
          0.0,
          0.0,
          0.7
        ],
        "metallicFactor": 0.0,
        "roughnessFactor": 0.09999999999999998
      }
    },
    {
      "alphaMode": "BLEND",
      "doubleSided": true,
      "name": "f4748257-d01b-4514-a995-77f645c32a40",
      "normalTexture": {
        "index": 29
      },
      "pbrMetallicRoughness": {
        "baseColorFactor": [
          1.0,
          1.0,
          1.0,
          0.0
        ],
        "baseColorTexture": {
          "index": 27
        },
        "metallicFactor": 0.05,
        "metallicRoughnessTexture": {
          "index": 28
        }
      }
    },
    {
      "doubleSided": true,
      "emissiveFactor": [
        0.5,
        0.5,
        0.5
      ],
      "emissiveTexture": {
        "index": 30
      },
      "name": "fea4cee0-b6d3-48df-8c74-28799821016a",
      "normalTexture": {
        "index": 32
      },
      "occlusionTexture": {
        "index": 31
      },
      "pbrMetallicRoughness": {
        "baseColorTexture": {
          "index": 30
        },
        "metallicRoughnessTexture": {
          "index": 31
        },
        "roughnessFactor": 0.4
      }
    }
  ],
  "meshes": [
    {
      "name": "Object_0",
      "primitives": [
        {
          "attributes": {
            "NORMAL": 1,
            "POSITION": 0,
            "TEXCOORD_0": 2
          },
          "indices": 3,
          "material": 4,
          "mode": 4
        }
      ]
    },
    {
      "name": "Object_1",
      "primitives": [
        {
          "attributes": {
            "NORMAL": 5,
            "POSITION": 4,
            "TEXCOORD_0": 6
          },
          "indices": 7,
          "material": 7,
          "mode": 4
        }
      ]
    },
    {
      "name": "Object_2",
      "primitives": [
        {
          "attributes": {
            "NORMAL": 9,
            "POSITION": 8,
            "TANGENT": 10,
            "TEXCOORD_0": 11
          },
          "indices": 12,
          "material": 0,
          "mode": 4
        }
      ]
    },
    {
      "name": "Object_3",
      "primitives": [
        {
          "attributes": {
            "NORMAL": 14,
            "POSITION": 13,
            "TANGENT": 15,
            "TEXCOORD_0": 16
          },
          "indices": 17,
          "material": 2,
          "mode": 4
        }
      ]
    },
    {
      "name": "Object_4",
      "primitives": [
        {
          "attributes": {
            "NORMAL": 19,
            "POSITION": 18,
            "TANGENT": 20,
            "TEXCOORD_0": 21
          },
          "indices": 22,
          "material": 1,
          "mode": 4
        }
      ]
    },
    {
      "name": "Object_5",
      "primitives": [
        {
          "attributes": {
            "NORMAL": 24,
            "POSITION": 23,
            "TANGENT": 25,
            "TEXCOORD_0": 26
          },
          "indices": 27,
          "material": 1,
          "mode": 4
        }
      ]
    },
    {
      "name": "Object_6",
      "primitives": [
        {
          "attributes": {
            "NORMAL": 29,
            "POSITION": 28,
            "TANGENT": 30,
            "TEXCOORD_0": 31
          },
          "indices": 32,
          "material": 3,
          "mode": 4
        }
      ]
    },
    {
      "name": "Object_7",
      "primitives": [
        {
          "attributes": {
            "NORMAL": 34,
            "POSITION": 33,
            "TANGENT": 35,
            "TEXCOORD_0": 36
          },
          "indices": 37,
          "material": 3,
          "mode": 4
        }
      ]
    },
    {
      "name": "Object_8",
      "primitives": [
        {
          "attributes": {
            "NORMAL": 39,
            "POSITION": 38,
            "TANGENT": 40,
            "TEXCOORD_0": 41
          },
          "indices": 42,
          "material": 3,
          "mode": 4
        }
      ]
    },
    {
      "name": "Object_9",
      "primitives": [
        {
          "attributes": {
            "NORMAL": 44,
            "POSITION": 43,
            "TANGENT": 45,
            "TEXCOORD_0": 46
          },
          "indices": 47,
          "material": 3,
          "mode": 4
        }
      ]
    },
    {
      "name": "Object_10",
      "primitives": [
        {
          "attributes": {
            "NORMAL": 49,
            "POSITION": 48,
            "TANGENT": 50,
            "TEXCOORD_0": 51
          },
          "indices": 52,
          "material": 3,
          "mode": 4
        }
      ]
    },
    {
      "name": "Object_11",
      "primitives": [
        {
          "attributes": {
            "NORMAL": 54,
            "POSITION": 53,
            "TANGENT": 55,
            "TEXCOORD_0": 56
          },
          "indices": 57,
          "material": 3,
          "mode": 4
        }
      ]
    },
    {
      "name": "Object_12",
      "primitives": [
        {
          "attributes": {
            "NORMAL": 59,
            "POSITION": 58,
            "TANGENT": 60,
            "TEXCOORD_0": 61
          },
          "indices": 62,
          "material": 3,
          "mode": 4
        }
      ]
    },
    {
      "name": "Object_13",
      "primitives": [
        {
          "attributes": {
            "NORMAL": 64,
            "POSITION": 63,
            "TANGENT": 65,
            "TEXCOORD_0": 66
          },
          "indices": 67,
          "material": 3,
          "mode": 4
        }
      ]
    },
    {
      "name": "Object_14",
      "primitives": [
        {
          "attributes": {
            "NORMAL": 69,
            "POSITION": 68,
            "TANGENT": 70,
            "TEXCOORD_0": 71
          },
          "indices": 72,
          "material": 3,
          "mode": 4
        }
      ]
    },
    {
      "name": "Object_15",
      "primitives": [
        {
          "attributes": {
            "NORMAL": 74,
            "POSITION": 73,
            "TANGENT": 75,
            "TEXCOORD_0": 76
          },
          "indices": 77,
          "material": 3,
          "mode": 4
        }
      ]
    },
    {
      "name": "Object_16",
      "primitives": [
        {
          "attributes": {
            "NORMAL": 79,
            "POSITION": 78,
            "TEXCOORD_0": 80
          },
          "indices": 81,
          "material": 5,
          "mode": 4
        }
      ]
    },
    {
      "name": "Object_17",
      "primitives": [
        {
          "attributes": {
            "NORMAL": 83,
            "POSITION": 82,
            "TANGENT": 84,
            "TEXCOORD_0": 85
          },
          "indices": 86,
          "material": 6,
          "mode": 4
        }
      ]
    },
    {
      "name": "Object_18",
      "primitives": [
        {
          "attributes": {
            "NORMAL": 88,
            "POSITION": 87,
            "TANGENT": 89,
            "TEXCOORD_0": 90
          },
          "indices": 91,
          "material": 8,
          "mode": 4
        }
      ]
    },
    {
      "name": "Object_19",
      "primitives": [
        {
          "attributes": {
            "NORMAL": 93,
            "POSITION": 92,
            "TEXCOORD_0": 94
          },
          "indices": 95,
          "material": 9,
          "mode": 4
        }
      ]
    },
    {
      "name": "Object_20",
      "primitives": [
        {
          "attributes": {
            "NORMAL": 97,
            "POSITION": 96,
            "TANGENT": 98,
            "TEXCOORD_0": 99
          },
          "indices": 100,
          "material": 10,
          "mode": 4
        }
      ]
    },
    {
      "name": "Object_21",
      "primitives": [
        {
          "attributes": {
            "NORMAL": 102,
            "POSITION": 101,
            "TEXCOORD_0": 103
          },
          "indices": 104,
          "material": 11,
          "mode": 4
        }
      ]
    },
    {
      "name": "Object_22",
      "primitives": [
        {
          "attributes": {
            "NORMAL": 106,
            "POSITION": 105,
            "TANGENT": 107,
            "TEXCOORD_0": 108
          },
          "indices": 109,
          "material": 12,
          "mode": 4
        }
      ]
    },
    {
      "name": "Object_23",
      "primitives": [
        {
          "attributes": {
            "NORMAL": 111,
            "POSITION": 110,
            "TANGENT": 112,
            "TEXCOORD_0": 113
          },
          "indices": 114,
          "material": 13,
          "mode": 4
        }
      ]
    },
    {
      "name": "Object_24",
      "primitives": [
        {
          "attributes": {
            "NORMAL": 116,
            "POSITION": 115,
            "TANGENT": 117,
            "TEXCOORD_0": 118
          },
          "indices": 119,
          "material": 13,
          "mode": 4
        }
      ]
    },
    {
      "name": "Object_25",
      "primitives": [
        {
          "attributes": {
            "NORMAL": 121,
            "POSITION": 120,
            "TANGENT": 122,
            "TEXCOORD_0": 123
          },
          "indices": 124,
          "material": 13,
          "mode": 4
        }
      ]
    },
    {
      "name": "Object_26",
      "primitives": [
        {
          "attributes": {
            "NORMAL": 126,
            "POSITION": 125,
            "TANGENT": 127,
            "TEXCOORD_0": 128
          },
          "indices": 129,
          "material": 13,
          "mode": 4
        }
      ]
    },
    {
      "name": "Object_27",
      "primitives": [
        {
          "attributes": {
            "NORMAL": 131,
            "POSITION": 130,
            "TANGENT": 132,
            "TEXCOORD_0": 133
          },
          "indices": 134,
          "material": 13,
          "mode": 4
        }
      ]
    },
    {
      "name": "Object_28",
      "primitives": [
        {
          "attributes": {
            "NORMAL": 136,
            "POSITION": 135,
            "TANGENT": 137,
            "TEXCOORD_0": 138
          },
          "indices": 139,
          "material": 13,
          "mode": 4
        }
      ]
    },
    {
      "name": "Object_29",
      "primitives": [
        {
          "attributes": {
            "NORMAL": 141,
            "POSITION": 140,
            "TANGENT": 142,
            "TEXCOORD_0": 143
          },
          "indices": 144,
          "material": 13,
          "mode": 4
        }
      ]
    },
    {
      "name": "Object_30",
      "primitives": [
        {
          "attributes": {
            "NORMAL": 146,
            "POSITION": 145,
            "TANGENT": 147,
            "TEXCOORD_0": 148
          },
          "indices": 149,
          "material": 13,
          "mode": 4
        }
      ]
    },
    {
      "name": "Object_31",
      "primitives": [
        {
          "attributes": {
            "NORMAL": 151,
            "POSITION": 150,
            "TANGENT": 152,
            "TEXCOORD_0": 153
          },
          "indices": 154,
          "material": 13,
          "mode": 4
        }
      ]
    },
    {
      "name": "Object_32",
      "primitives": [
        {
          "attributes": {
            "NORMAL": 156,
            "POSITION": 155,
            "TANGENT": 157,
            "TEXCOORD_0": 158
          },
          "indices": 159,
          "material": 13,
          "mode": 4
        }
      ]
    },
    {
      "name": "Object_33",
      "primitives": [
        {
          "attributes": {
            "NORMAL": 161,
            "POSITION": 160,
            "TEXCOORD_0": 162
          },
          "indices": 163,
          "material": 14,
          "mode": 4
        }
      ]
    },
    {
      "name": "Object_34",
      "primitives": [
        {
          "attributes": {
            "NORMAL": 165,
            "POSITION": 164,
            "TANGENT": 166,
            "TEXCOORD_0": 167
          },
          "indices": 168,
          "material": 15,
          "mode": 4
        }
      ]
    },
    {
      "name": "Object_35",
      "primitives": [
        {
          "attributes": {
            "NORMAL": 170,
            "POSITION": 169,
            "TANGENT": 171,
            "TEXCOORD_0": 172
          },
          "indices": 173,
          "material": 15,
          "mode": 4
        }
      ]
    },
    {
      "name": "Object_36",
      "primitives": [
        {
          "attributes": {
            "NORMAL": 175,
            "POSITION": 174,
            "TANGENT": 176,
            "TEXCOORD_0": 177
          },
          "indices": 178,
          "material": 16,
          "mode": 4
        }
      ]
    }
  ],
  "nodes": [
    {
      "children": [
        1
      ],
      "matrix": [
        1.0,
        0.0,
        0.0,
        0.0,
        0.0,
        2.220446049250313e-16,
        -1.0,
        0.0,
        0.0,
        1.0,
        2.220446049250313e-16,
        0.0,
        0.0,
        0.0,
        0.0,
        1.0
      ],
      "name": "Sketchfab_model"
    },
    {
      "children": [
        2,
        3,
        4,
        5,
        6,
        7,
        8,
        9,
        10,
        11,
        12,
        13,
        14,
        15,
        16,
        17,
        18,
        19,
        20,
        21,
        22,
        23,
        24,
        25,
        26,
        27,
        28,
        29,
        30,
        31,
        32,
        33,
        34,
        35,
        36,
        37,
        38
      ],
      "name": "Kfir C.10 B60.obj.cleaner.materialmerger.gles"
    },
    {
      "mesh": 0,
      "name": "Object_2"
    },
    {
      "mesh": 1,
      "name": "Object_3"
    },
    {
      "mesh": 2,
      "name": "Object_4"
    },
    {
      "mesh": 3,
      "name": "Object_5"
    },
    {
      "mesh": 4,
      "name": "Object_6"
    },
    {
      "mesh": 5,
      "name": "Object_7"
    },
    {
      "mesh": 6,
      "name": "Object_8"
    },
    {
      "mesh": 7,
      "name": "Object_9"
    },
    {
      "mesh": 8,
      "name": "Object_10"
    },
    {
      "mesh": 9,
      "name": "Object_11"
    },
    {
      "mesh": 10,
      "name": "Object_12"
    },
    {
      "mesh": 11,
      "name": "Object_13"
    },
    {
      "mesh": 12,
      "name": "Object_14"
    },
    {
      "mesh": 13,
      "name": "Object_15"
    },
    {
      "mesh": 14,
      "name": "Object_16"
    },
    {
      "mesh": 15,
      "name": "Object_17"
    },
    {
      "mesh": 16,
      "name": "Object_18"
    },
    {
      "mesh": 17,
      "name": "Object_19"
    },
    {
      "mesh": 18,
      "name": "Object_20"
    },
    {
      "mesh": 19,
      "name": "Object_21"
    },
    {
      "mesh": 20,
      "name": "Object_22"
    },
    {
      "mesh": 21,
      "name": "Object_23"
    },
    {
      "mesh": 22,
      "name": "Object_24"
    },
    {
      "mesh": 23,
      "name": "Object_25"
    },
    {
      "mesh": 24,
      "name": "Object_26"
    },
    {
      "mesh": 25,
      "name": "Object_27"
    },
    {
      "mesh": 26,
      "name": "Object_28"
    },
    {
      "mesh": 27,
      "name": "Object_29"
    },
    {
      "mesh": 28,
      "name": "Object_30"
    },
    {
      "mesh": 29,
      "name": "Object_31"
    },
    {
      "mesh": 30,
      "name": "Object_32"
    },
    {
      "mesh": 31,
      "name": "Object_33"
    },
    {
      "mesh": 32,
      "name": "Object_34"
    },
    {
      "mesh": 33,
      "name": "Object_35"
    },
    {
      "mesh": 34,
      "name": "Object_36"
    },
    {
      "mesh": 35,
      "name": "Object_37"
    },
    {
      "mesh": 36,
      "name": "Object_38"
    }
  ],
  "samplers": [
    {
      "magFilter": 9729,
      "minFilter": 9987,
      "wrapS": 10497,
      "wrapT": 10497
    }
  ],
  "scene": 0,
  "scenes": [
    {
      "name": "Sketchfab_Scene",
      "nodes": [
        0
      ]
    }
  ],
  "textures": [
    {
      "sampler": 0,
      "source": 0
    },
    {
      "sampler": 0,
      "source": 1
    },
    {
      "sampler": 0,
      "source": 2
    },
    {
      "sampler": 0,
      "source": 3
    },
    {
      "sampler": 0,
      "source": 4
    },
    {
      "sampler": 0,
      "source": 5
    },
    {
      "sampler": 0,
      "source": 6
    },
    {
      "sampler": 0,
      "source": 7
    },
    {
      "sampler": 0,
      "source": 8
    },
    {
      "sampler": 0,
      "source": 9
    },
    {
      "sampler": 0,
      "source": 10
    },
    {
      "sampler": 0,
      "source": 11
    },
    {
      "sampler": 0,
      "source": 12
    },
    {
      "sampler": 0,
      "source": 13
    },
    {
      "sampler": 0,
      "source": 14
    },
    {
      "sampler": 0,
      "source": 15
    },
    {
      "sampler": 0,
      "source": 16
    },
    {
      "sampler": 0,
      "source": 17
    },
    {
      "sampler": 0,
      "source": 18
    },
    {
      "sampler": 0,
      "source": 19
    },
    {
      "sampler": 0,
      "source": 20
    },
    {
      "sampler": 0,
      "source": 21
    },
    {
      "sampler": 0,
      "source": 22
    },
    {
      "sampler": 0,
      "source": 23
    },
    {
      "sampler": 0,
      "source": 24
    },
    {
      "sampler": 0,
      "source": 25
    },
    {
      "sampler": 0,
      "source": 26
    },
    {
      "sampler": 0,
      "source": 27
    },
    {
      "sampler": 0,
      "source": 28
    },
    {
      "sampler": 0,
      "source": 29
    },
    {
      "sampler": 0,
      "source": 30
    },
    {
      "sampler": 0,
      "source": 31
    },
    {
      "sampler": 0,
      "source": 32
    }
  ]
}
