{
  "accessors": [
    {
      "bufferView": 2,
      "componentType": 5126,
      "count": 2367,
      "max": [
        36.39871597290039,
        36.398712158203125,
        444.34686279296875
      ],
      "min": [
        -36.39871597290039,
        -36.398712158203125,
        0.7842249870300293
      ],
      "type": "VEC3"
    },
    {
      "bufferView": 2,
      "byteOffset": 28404,
      "componentType": 5126,
      "count": 2367,
      "max": [
        1.0,
        1.0,
        1.0
      ],
      "min": [
        -1.0,
        -1.0,
        -1.0
      ],
      "type": "VEC3"
    },
    {
      "bufferView": 3,
      "componentType": 5126,
      "count": 2367,
      "max": [
        1.0,
        1.0,
        1.0,
        1.0
      ],
      "min": [
        -1.0,
        -1.0,
        -1.0,
        -1.0
      ],
      "type": "VEC4"
    },
    {
      "bufferView": 1,
      "componentType": 5126,
      "count": 2367,
      "max": [
        0.949882984161377,
        0.9900000095367432
      ],
      "min": [
        0.009999999776482582,
        0.009999999776482582
      ],
      "type": "VEC2"
    },
    {
      "bufferView": 0,
      "componentType": 5125,
      "count": 5964,
      "type": "SCALAR"
    }
  ],
  "asset": {
    "extras": {
      "author": "Idmental (https://sketchfab.com/idmental.id)",
      "license": "CC-BY-4.0 (http://creativecommons.org/licenses/by/4.0/)",
      "source": "https://sketchfab.com/3d-models/missle-game-ready-4k-pbr-textures-free-6ba63560d986485d9d5fa651d6d7e27b",
      "title": "Missle Game Ready 4k PBR textures [free]"
    },
    "generator": "Sketchfab-14.55.0",
    "version": "2.0"
  },
  "bufferViews": [
    {
      "buffer": 0,
      "byteLength": 23856,
      "name": "floatBufferViews",
      "target": 34963
    },
    {
      "buffer": 0,
      "byteLength": 18936,
      "byteOffset": 23856,
      "byteStride": 8,
      "name": "floatBufferViews",
      "target": 34962
    },
    {
      "buffer": 0,
      "byteLength": 56808,
      "byteOffset": 42792,
      "byteStride": 12,
      "name": "floatBufferViews",
      "target": 34962
    },
    {
      "buffer": 0,
      "byteLength": 37872,
      "byteOffset": 99600,
      "byteStride": 16,
      "name": "floatBufferViews",
      "target": 34962
    }
  ],
  "buffers": [
    {
      "byteLength": 137472,
      "uri": "scene.bin"
    }
  ],
  "images": [
    {
      "uri": "textures/Aim-541_baseColor.png"
    },
    {
      "uri": "textures/Aim-541_metallicRoughness.png"
    },
    {
      "uri": "textures/Aim-541_emissive.png"
    },
    {
      "uri": "textures/Aim-541_normal.png"
    }
  ],
  "materials": [
    {
      "alphaMode": "BLEND",
      "doubleSided": true,
      "emissiveFactor": [
        1.0,
        1.0,
        1.0
      ],
      "emissiveTexture": {
        "index": 2
      },
      "name": "Aim-541",
      "normalTexture": {
        "index": 3
      },
      "pbrMetallicRoughness": {
        "baseColorTexture": {
          "index": 0
        },
        "metallicFactor": 0.8886858071442886,
        "metallicRoughnessTexture": {
          "index": 1
        },
        "roughnessFactor": 0.5103809788763756
      }
    }
  ],
  "meshes": [
    {
      "name": "Object_0",
      "primitives": [
        {
          "attributes": {
            "NORMAL": 1,
            "POSITION": 0,
            "TANGENT": 2,
            "TEXCOORD_0": 3
          },
          "indices": 4,
          "material": 0,
          "mode": 4
        }
      ]
    }
  ],
  "nodes": [
    {
      "children": [
        1
      ],
      "matrix": [
        0.004631421063095331,
        0.0,
        0.0,
        0.0,
        0.0,
        1.0283820601964713e-18,
        -0.004631421063095331,
        0.0,
        0.0,
        0.004631421063095331,
        1.0283820601964713e-18,
        0.0,
        0.0,
        0.0,
        0.0,
        1.0
      ],
      "name": "Sketchfab_model"
    },
    {
      "children": [
        2
      ],
      "name": "AGM-88.obj.cleaner.materialmerger.gles"
    },
    {
      "mesh": 0,
      "name": "Object_2"
    }
  ],
  "samplers": [
    {
      "magFilter": 9729,
      "minFilter": 9987,
      "wrapS": 10497,
      "wrapT": 10497
    }
  ],
  "scene": 0,
  "scenes": [
    {
      "name": "Sketchfab_Scene",
      "nodes": [
        0
      ]
    }
  ],
  "textures": [
    {
      "sampler": 0,
      "source": 0
    },
    {
      "sampler": 0,
      "source": 1
    },
    {
      "sampler": 0,
      "source": 2
    },
    {
      "sampler": 0,
      "source": 3
    }
  ]
}
